<?xml version="1.0" encoding="UTF-8" standalone="no"?>
<!-- Created with Inkscape (http://www.inkscape.org/) -->

<svg
   xmlns:dc="http://purl.org/dc/elements/1.1/"
   xmlns:cc="http://creativecommons.org/ns#"
   xmlns:rdf="http://www.w3.org/1999/02/22-rdf-syntax-ns#"
   xmlns:svg="http://www.w3.org/2000/svg"
   xmlns="http://www.w3.org/2000/svg"
   xmlns:xlink="http://www.w3.org/1999/xlink"
   xmlns:sodipodi="http://sodipodi.sourceforge.net/DTD/sodipodi-0.dtd"
   xmlns:inkscape="http://www.inkscape.org/namespaces/inkscape"
   width="113.242mm"
   height="105.304mm"
   viewBox="0 0 113.242 105.304"
   version="1.1"
   id="svg8"
   inkscape:version="0.92.2 (5c3e80d, 2017-08-06)"
   sodipodi:docname="logo-preserv-vetor-FINAL.svg">
  <defs
     id="defs2">
    <linearGradient
       id="linearGradient1355"
       inkscape:collect="always">
      <stop
         id="stop1351"
         offset="0"
         style="stop-color:#0d9a62;stop-opacity:1" />
      <stop
         id="stop1353"
         offset="1"
         style="stop-color:#135638;stop-opacity:1" />
    </linearGradient>
    <linearGradient
       inkscape:collect="always"
       id="linearGradient964">
      <stop
         style="stop-color:#79d07a;stop-opacity:1"
         offset="0"
         id="stop960" />
      <stop
         style="stop-color:#2c9e2a;stop-opacity:1"
         offset="1"
         id="stop962" />
    </linearGradient>
    <radialGradient
       inkscape:collect="always"
       xlink:href="#linearGradient1355"
       id="radialGradient1423"
       gradientUnits="userSpaceOnUse"
       gradientTransform="matrix(0.26458333,0,0,0.2167,397.65449,9.1395227)"
       cx="334.39062"
       cy="321.29004"
       fx="334.39062"
       fy="321.29004"
       r="105.98438" />
    <radialGradient
       inkscape:collect="always"
       xlink:href="#linearGradient964"
       id="radialGradient1425"
       gradientUnits="userSpaceOnUse"
       gradientTransform="matrix(0.26458333,0,0,0.26458576,397.65449,-6.2457017)"
       cx="334.39062"
       cy="321.80566"
       fx="334.39062"
       fy="321.80566"
       r="105.98438" />
  </defs>
  <sodipodi:namedview
     id="base"
     pagecolor="#ffffff"
     bordercolor="#666666"
     borderopacity="1.0"
     inkscape:pageopacity="0.0"
     inkscape:pageshadow="2"
     inkscape:zoom="1.4"
     inkscape:cx="212.88682"
     inkscape:cy="138.55007"
     inkscape:document-units="mm"
     inkscape:current-layer="layer1"
     showgrid="false"
     inkscape:snap-global="true"
     inkscape:window-width="1600"
     inkscape:window-height="838"
     inkscape:window-x="-8"
     inkscape:window-y="-8"
     inkscape:window-maximized="1" />
  <metadata
     id="metadata5">
    <rdf:RDF>
      <cc:Work
         rdf:about="">
        <dc:format>image/svg+xml</dc:format>
        <dc:type
           rdf:resource="http://purl.org/dc/dcmitype/StillImage" />
        <dc:title></dc:title>
      </cc:Work>
    </rdf:RDF>
  </metadata>
  <g
     inkscape:label="Camada 1"
     inkscape:groupmode="layer"
     id="layer1"
     transform="translate(0,-191.696)">
    <g
       id="g1461"
       transform="translate(-517.90285,144.46258)">
      <rect
         y="47.233334"
         x="517.90302"
         height="105.30418"
         width="113.24167"
         id="rect1377"
         style="opacity:1;vector-effect:none;fill:#f7f7f7;fill-opacity:1;stroke:none;stroke-width:2.46500015;stroke-linecap:round;stroke-linejoin:miter;stroke-miterlimit:4;stroke-dasharray:none;stroke-dashoffset:0;stroke-opacity:1" />
      <g
         transform="translate(87.558774,3.674956)"
         id="g1421">
        <g
           id="g1397">
          <path
             style="color:#000000;font-style:normal;font-variant:normal;font-weight:normal;font-stretch:normal;font-size:medium;line-height:normal;font-family:sans-serif;font-variant-ligatures:normal;font-variant-position:normal;font-variant-caps:normal;font-variant-numeric:normal;font-variant-alternates:normal;font-feature-settings:normal;text-indent:0;text-align:start;text-decoration:none;text-decoration-line:none;text-decoration-style:solid;text-decoration-color:#000000;letter-spacing:normal;word-spacing:normal;text-transform:none;writing-mode:lr-tb;direction:ltr;text-orientation:mixed;dominant-baseline:auto;baseline-shift:baseline;text-anchor:start;white-space:normal;shape-padding:0;clip-rule:nonzero;display:inline;overflow:visible;visibility:visible;opacity:1;isolation:auto;mix-blend-mode:normal;color-interpolation:sRGB;color-interpolation-filters:linearRGB;solid-color:#000000;solid-opacity:1;vector-effect:none;fill:url(#radialGradient1423);fill-opacity:1;fill-rule:nonzero;stroke:none;stroke-width:7.66499996;stroke-linecap:butt;stroke-linejoin:miter;stroke-miterlimit:4;stroke-dasharray:none;stroke-dashoffset:0;stroke-opacity:1;color-rendering:auto;image-rendering:auto;shape-rendering:auto;text-rendering:auto;enable-background:accumulate"
             d="m 502.01647,55.796009 -38.12119,6.071981 a 28.041806,28.041806 0 0 0 -3.48764,5.997565 h 5.40845 v 1.456758 l 42.99841,-6.847644 a 28.041806,28.041806 0 0 0 -6.79803,-6.67866 z m 11.24685,16.111678 -55.10413,5.55625 a 28.041806,28.041806 0 0 0 -0.0718,1.435055 28.041806,28.041806 0 0 0 0.81803,6.594427 l 55.2142,-5.5671 a 28.041806,28.041806 0 0 0 0.0512,-1.027327 28.041806,28.041806 0 0 0 -0.90744,-6.991305 z m -3.88244,16.147335 -46.30002,6.761861 a 28.041806,28.041806 0 0 0 6.80217,6.912757 l 38.90873,-6.363955 a 28.041806,28.041806 0 0 0 3.53674,-6.610448 h -2.94762 z"
             id="path1393"
             inkscape:connector-curvature="0" />
          <path
             inkscape:connector-curvature="0"
             style="color:#000000;font-style:normal;font-variant:normal;font-weight:normal;font-stretch:normal;font-size:medium;line-height:normal;font-family:sans-serif;font-variant-ligatures:normal;font-variant-position:normal;font-variant-caps:normal;font-variant-numeric:normal;font-variant-alternates:normal;font-feature-settings:normal;text-indent:0;text-align:start;text-decoration:none;text-decoration-line:none;text-decoration-style:solid;text-decoration-color:#000000;letter-spacing:normal;word-spacing:normal;text-transform:none;writing-mode:lr-tb;direction:ltr;text-orientation:mixed;dominant-baseline:auto;baseline-shift:baseline;text-anchor:start;white-space:normal;shape-padding:0;clip-rule:nonzero;display:inline;overflow:visible;visibility:visible;opacity:1;isolation:auto;mix-blend-mode:normal;color-interpolation:sRGB;color-interpolation-filters:linearRGB;solid-color:#000000;solid-opacity:1;vector-effect:none;fill:url(#radialGradient1425);fill-opacity:1;fill-rule:nonzero;stroke:none;stroke-width:8.06499958;stroke-linecap:butt;stroke-linejoin:miter;stroke-miterlimit:4;stroke-dasharray:none;stroke-dashoffset:0;stroke-opacity:1;color-rendering:auto;image-rendering:auto;shape-rendering:auto;text-rendering:auto;enable-background:accumulate"
             d="m 486.12868,50.857543 a 28.041806,28.041806 0 0 0 -15.18357,4.46898 l 37.82611,7.087938 A 28.041806,28.041806 0 0 0 486.12868,50.857543 Z M 463.6577,62.180366 a 28.041806,28.041806 0 0 0 -3.9641,7.461043 l 54.42976,10.201445 a 28.041806,28.041806 0 0 0 0.047,-0.94361 28.041806,28.041806 0 0 0 -1.00872,-7.442441 z m -5.50406,15.384076 a 28.041806,28.041806 0 0 0 -0.0667,1.334802 28.041806,28.041806 0 0 0 0.91571,7.02851 l 49.85948,9.344651 a 28.041806,28.041806 0 0 0 3.83698,-7.48637 z m 4.98058,17.327623 a 28.041806,28.041806 0 0 0 17.13797,11.417395 l 0.81855,0.15348 a 28.041806,28.041806 0 0 0 5.03794,0.47852 28.041806,28.041806 0 0 0 15.65589,-4.80642 z"
             id="path1395" />
        </g>
        <path
           inkscape:connector-curvature="0"
           id="path1399"
           d="m 459.60317,135.51762 h 53.67262 v 6.72054 h -53.67262 z"
           style="opacity:1;vector-effect:none;fill:#309c2f;fill-opacity:1;stroke:none;stroke-width:8.06499958;stroke-linecap:round;stroke-linejoin:miter;stroke-miterlimit:4;stroke-dasharray:none;stroke-dashoffset:0;stroke-opacity:1" />
        <text
           id="text1403"
           y="133.48566"
           x="462.40256"
           style="font-style:normal;font-variant:normal;font-weight:normal;font-stretch:normal;font-size:4.23333311px;line-height:1.25;font-family:'Century Gothic';-inkscape-font-specification:'Century Gothic, Normal';font-variant-ligatures:normal;font-variant-caps:normal;font-variant-numeric:normal;font-feature-settings:normal;text-align:start;letter-spacing:0px;word-spacing:0px;writing-mode:lr-tb;text-anchor:start;fill:#838383;fill-opacity:1;stroke:none;stroke-width:0.26458332"
           xml:space="preserve"><tspan
             style="font-style:normal;font-variant:normal;font-weight:normal;font-stretch:normal;font-size:4.81541681px;font-family:'Century Gothic';-inkscape-font-specification:'Century Gothic, Normal';font-variant-ligatures:normal;font-variant-caps:normal;font-variant-numeric:normal;font-feature-settings:normal;text-align:start;writing-mode:lr-tb;text-anchor:start;fill:#838383;fill-opacity:1;stroke-width:0.26458332"
             y="133.48566"
             x="462.40256"
             id="tspan1401"
             sodipodi:role="line">Soluções Ambientais</tspan></text>
        <g
           transform="translate(254.74009,-12.737275)"
           style="fill:#353334;fill-opacity:1"
           id="g1419">
          <path
             inkscape:connector-curvature="0"
             id="path1405"
             style="font-style:normal;font-variant:normal;font-weight:bold;font-stretch:normal;font-size:19.04999924px;line-height:0.25;font-family:'Century Gothic';-inkscape-font-specification:'Century Gothic, Bold';font-variant-ligatures:normal;font-variant-caps:normal;font-variant-numeric:normal;font-feature-settings:normal;text-align:start;letter-spacing:-0.04497917px;word-spacing:0px;writing-mode:lr-tb;text-anchor:start;fill:#353334;fill-opacity:1;stroke:none;stroke-width:0.26458332"
             d="m 195.49706,126.19678 h 2.76262 q 2.24172,0 3.22771,0.41858 0.99529,0.40928 1.5627,1.33946 0.5767,0.92087 0.5767,2.21381 0,1.43248 -0.75344,2.38125 -0.74414,0.94878 -2.02778,1.32085 -0.75344,0.21394 -2.74402,0.21394 v 5.795 h -2.60449 z m 2.60449,5.34851 h 0.82786 q 0.97668,0 1.35805,-0.13952 0.38138,-0.13953 0.59532,-0.45579 0.22324,-0.32556 0.22324,-0.78135 0,-0.79064 -0.61392,-1.15341 -0.44648,-0.26975 -1.65571,-0.26975 h -0.73484 z" />
          <path
             inkscape:connector-curvature="0"
             id="path1407"
             style="font-style:normal;font-variant:normal;font-weight:bold;font-stretch:normal;font-size:19.04999924px;line-height:0.25;font-family:'Century Gothic';-inkscape-font-specification:'Century Gothic, Bold';font-variant-ligatures:normal;font-variant-caps:normal;font-variant-numeric:normal;font-feature-settings:normal;text-align:start;letter-spacing:-0.04497917px;word-spacing:0px;writing-mode:lr-tb;text-anchor:start;fill:#353334;fill-opacity:1;stroke:none;stroke-width:0.26458332"
             d="m 205.74858,126.19678 h 2.76262 q 2.26963,0 3.22771,0.40928 0.96739,0.39998 1.5534,1.33945 0.58601,0.93948 0.58601,2.22312 0,1.34876 -0.65113,2.26033 -0.64182,0.90227 -1.94406,1.36736 l 3.23701,6.08335 h -2.84634 l -3.07888,-5.795 h -0.24185 v 5.795 h -2.60449 z m 2.60449,5.34851 h 0.81856 q 1.24643,0 1.71152,-0.32556 0.47439,-0.32556 0.47439,-1.079 0,-0.44649 -0.23254,-0.77205 -0.23255,-0.33486 -0.62322,-0.47439 -0.39067,-0.14882 -1.43247,-0.14882 h -0.71624 z" />
          <path
             inkscape:connector-curvature="0"
             id="path1409"
             style="font-style:normal;font-variant:normal;font-weight:bold;font-stretch:normal;font-size:19.04999924px;line-height:0.25;font-family:'Century Gothic';-inkscape-font-specification:'Century Gothic, Bold';font-variant-ligatures:normal;font-variant-caps:normal;font-variant-numeric:normal;font-feature-settings:normal;text-align:start;letter-spacing:-0.04497917px;word-spacing:0px;writing-mode:lr-tb;text-anchor:start;fill:#353334;fill-opacity:1;stroke:none;stroke-width:0.26458332"
             d="m 216.75371,126.19678 h 7.46931 v 2.54869 h -4.88342 v 2.47426 h 4.88342 v 2.50218 h -4.88342 v 3.59978 h 4.88342 v 2.55798 h -7.46931 z" />
          <path
             inkscape:connector-curvature="0"
             id="path1411"
             style="font-style:normal;font-variant:normal;font-weight:bold;font-stretch:normal;font-size:19.04999924px;line-height:0.25;font-family:'Century Gothic';-inkscape-font-specification:'Century Gothic, Bold';font-variant-ligatures:normal;font-variant-caps:normal;font-variant-numeric:normal;font-feature-settings:normal;text-align:start;letter-spacing:-0.04497917px;word-spacing:0px;writing-mode:lr-tb;text-anchor:start;fill:#353334;fill-opacity:1;stroke:none;stroke-width:0.26458332"
             d="m 234.46973,128.05714 -1.92546,1.70222 q -1.01389,-1.41387 -2.06499,-1.41387 -0.5116,0 -0.83716,0.27905 -0.32556,0.26975 -0.32556,0.61392 0,0.34416 0.23254,0.65112 0.31626,0.40928 1.90686,1.75803 1.48828,1.24644 1.80454,1.572 0.79065,0.79995 1.11621,1.53479 0.33487,0.72554 0.33487,1.5906 0,1.68362 -1.16272,2.78123 -1.16272,1.0976 -3.03237,1.0976 -1.46038,0 -2.54869,-0.71623 -1.079,-0.71624 -1.85105,-2.25103 l 2.18592,-1.32085 q 0.98598,1.81385 2.26963,1.81385 0.66972,0 1.12551,-0.39068 0.45578,-0.39067 0.45578,-0.90227 0,-0.46509 -0.34416,-0.93017 -0.34417,-0.46509 -1.51619,-1.42317 -2.23242,-1.82315 -2.88354,-2.80913 -0.65112,-0.99529 -0.65112,-1.98128 0,-1.42317 1.079,-2.43706 1.0883,-1.02319 2.67891,-1.02319 1.02319,0 1.94406,0.47439 0.93018,0.47439 2.00918,1.73013 z" />
          <path
             inkscape:connector-curvature="0"
             id="path1413"
             style="font-style:normal;font-variant:normal;font-weight:bold;font-stretch:normal;font-size:19.04999924px;line-height:0.25;font-family:'Century Gothic';-inkscape-font-specification:'Century Gothic, Bold';font-variant-ligatures:normal;font-variant-caps:normal;font-variant-numeric:normal;font-feature-settings:normal;text-align:start;letter-spacing:-0.04497917px;word-spacing:0px;writing-mode:lr-tb;text-anchor:start;fill:#353334;fill-opacity:1;stroke:none;stroke-width:0.26458332"
             d="m 236.85879,126.19678 h 7.46931 v 2.54869 h -4.88342 v 2.47426 h 4.88342 v 2.50218 h -4.88342 v 3.59978 h 4.88342 v 2.55798 h -7.46931 z" />
          <path
             inkscape:connector-curvature="0"
             id="path1415"
             style="font-style:normal;font-variant:normal;font-weight:bold;font-stretch:normal;font-size:19.04999924px;line-height:0.25;font-family:'Century Gothic';-inkscape-font-specification:'Century Gothic, Bold';font-variant-ligatures:normal;font-variant-caps:normal;font-variant-numeric:normal;font-feature-settings:normal;text-align:start;letter-spacing:-0.04497917px;word-spacing:0px;writing-mode:lr-tb;text-anchor:start;fill:#353334;fill-opacity:1;stroke:none;stroke-width:0.26458332"
             d="m 246.444,126.19678 h 2.76262 q 2.26963,0 3.22771,0.40928 0.96738,0.39998 1.5534,1.33945 0.58601,0.93948 0.58601,2.22312 0,1.34876 -0.65113,2.26033 -0.64182,0.90227 -1.94406,1.36736 l 3.23701,6.08335 h -2.84634 l -3.07888,-5.795 h -0.24185 v 5.795 H 246.444 Z m 2.60449,5.34851 h 0.81856 q 1.24643,0 1.71152,-0.32556 0.47439,-0.32556 0.47439,-1.079 0,-0.44649 -0.23254,-0.77205 -0.23255,-0.33486 -0.62322,-0.47439 -0.39068,-0.14882 -1.43247,-0.14882 h -0.71624 z" />
          <path
             inkscape:connector-curvature="0"
             id="path1417"
             style="font-style:normal;font-variant:normal;font-weight:bold;font-stretch:normal;font-size:19.04999924px;line-height:0.25;font-family:'Century Gothic';-inkscape-font-specification:'Century Gothic, Bold';font-variant-ligatures:normal;font-variant-caps:normal;font-variant-numeric:normal;font-feature-settings:normal;text-align:start;letter-spacing:-0.04497917px;word-spacing:0px;writing-mode:lr-tb;text-anchor:start;fill:#353334;fill-opacity:1;stroke:none;stroke-width:0.26458332"
             d="m 256.66529,126.19678 h 2.6789 l 3.44165,9.72034 3.48816,-9.72034 h 2.67891 l -4.92993,13.68289 h -2.51148 z" />
        </g>
      </g>
    </g>
  </g>
</svg>
